<svg id="Capa_1" data-name="Capa 1" xmlns="http://www.w3.org/2000/svg" viewBox="0 0 1920 719.11"><defs><style>.cls-1{fill:#61672a;}</style></defs><path class="cls-1" d="M1315.21,167.5c-17.7,2.8-27.69,18.41-24.28,39.91,3.3,20.85,17.73,33.26,35.42,30.45,18.25-2.89,27.58-19.06,24.28-39.9C1347.22,176.45,1333.45,164.61,1315.21,167.5Z"/><path class="cls-1" d="M1301.19,276.36h-11.75l3.34,126.93c-61.13,13-69.71-56.63-66.55-93.17,3.56-41-11.44-53.25-11.44-53.25h-49.71s-41.43,253.71-52.88,257.65,23.68-187.2,23.68-187.2l-64.4,15.52c-4.28,13.92-7.38,34.09-8.83,56.31l-10.45,3.49s-83.23,51.12-93.88-6.11-50.17-88.93-112.48-76.24c-65.16,13.27-68.68,45.35-81,82.41-15.15,30.68-70.27,140.66-90.61,158.69-23.67,21-39.53-4.79-26.08-145.58S713.53,81.68,735.9,47,692.07,8.31,677.29,32.81s-92.16,209.48-86.87,408.73S668.58,598.36,700,538.09c21.43-41.08,45.87-86.84,59.07-115.86-8,35.72-.59,73.65,55.33,53.84C878.62,453.33,916.1,404.8,916.1,404.8s-9.47,47.66,45.77,49.67c37.27,1.36,77.79-26.84,100.25-45.36-2.49,60.23,7.25,130.55,38.64,133,45,3.54,81.28-208.77,81.28-208.77s5.13,49,44.75,76.55c21.15,14.71,46.82,9.93,66.23,2.3l1.06,40.27c0,34.14,21.66,64,44.61,64H1351V315C1351,280.84,1324.14,276.36,1301.19,276.36Zm-490.92,153c-6.31-23,46.29-61.19,60-66.45s36.83,8.53,36.83,8.53C887.08,421,816.58,452.39,810.27,429.4Z"/><path class="cls-1" d="M1790.86,270.76c-82.27,0-123.69,57.65-123.69,125.93s41.42,125.37,123.69,125.37c82.84,0,123.69-57.09,123.69-125.37S1873.14,270.76,1790.86,270.76Zm0,245.71c-37.49,0-56.52-54.85-56.52-120.34,0-66,19-119.77,56.52-119.77s56.53,53.73,56.53,119.77C1847.39,461.62,1828.92,516.47,1790.86,516.47Z"/><path class="cls-1" d="M514.66,204.93c59-62.59,23.84-167-119.79-163.85S121,144.42,43.26,318.7,8.2,693.66,166.81,701.75s355-240,355-240l-40.5,40.57L369,604C256.61,705.56,87.11,729.17,58.3,578.44s58-275.23,110.8-353.51S368,59.19,440.64,103.48s34.25,79.75,0,115.45C440.64,218.93,455.64,267.52,514.66,204.93Z"/><path class="cls-1" d="M1560.87,270.76c-33.58,0-59.89,13.43-85.07,34.15l-6.16,5.59c-2.24-30.22-27.42-34.14-49.81-34.14h-11.76V477.85c0,34.14,26.31,38.62,49.82,38.62h11.75V317.22l7.28-6.16c18.47-15.67,34.7-25.18,52-25.18,22.39,0,43.1,16.79,43.1,57.64V477.85c0,34.14,26.3,38.62,49.25,38.62h12.32V343C1633.63,294.27,1606.76,270.76,1560.87,270.76Z"/><path class="cls-1" d="M1629.09,157.39a86.41,86.41,0,0,0-12.16,3.72c-3.81,1.49-6.38,2.57-7.69,3.23-2.66,1.32-31.6,16-44.17,20.35q-15.9,6.94-27-6.7c-7.45-9.1-25.4-43.6-28-47.9a15.22,15.22,0,0,0-11.17-5.21,15.92,15.92,0,0,0-11.66,4.22c-17.21,15.55-71,68-76.93,74.94s-9.59,14.39-10.92,22.33a3.57,3.57,0,0,0,2,3.48,10.56,10.56,0,0,0,8.93,0c11.25-6,64.69-60.72,72-63s12.74-1.08,16.38,3.72,14.72,32.67,18.37,39a25.15,25.15,0,0,0,16.37,12.16q10.92,2.73,30.28-6.2c8.93-4,52.77-30.11,62-36.73S1640.33,167,1642,163.34c1-3.3.17-5.37-2.48-6.2S1633.38,156.4,1629.09,157.39Z"/></svg>